<?xml version="1.0" encoding="utf-8" standalone="no"?>
<!DOCTYPE svg PUBLIC "-//W3C//DTD SVG 1.1//EN"
  "http://www.w3.org/Graphics/SVG/1.1/DTD/svg11.dtd">
<!-- Created with matplotlib (https://matplotlib.org/) -->
<svg height="360pt" version="1.1" viewBox="0 0 504 360" width="504pt" xmlns="http://www.w3.org/2000/svg" xmlns:xlink="http://www.w3.org/1999/xlink">
 <defs>
  <style type="text/css">
*{stroke-linecap:butt;stroke-linejoin:round;}
  </style>
 </defs>
 <g id="figure_1">
  <g id="patch_1">
   <path d="M 0 360 
L 504 360 
L 504 0 
L 0 0 
z
" style="fill:#ffffff;"/>
  </g>
  <g id="axes_1">
   <g id="patch_2">
    <path clip-path="url(#pe4c5ee26e4)" d="M 102.804124 316.400582 
L 106.948454 316.400582 
L 106.948454 291.321492 
L 102.804124 291.321492 
z
" style="fill:#ff0000;"/>
   </g>
   <g id="patch_3">
    <path clip-path="url(#pe4c5ee26e4)" d="M 110.263918 316.400582 
L 114.408247 316.400582 
L 114.408247 165.926043 
L 110.263918 165.926043 
z
" style="fill:#ff0000;"/>
   </g>
   <g id="patch_4">
    <path clip-path="url(#pe4c5ee26e4)" d="M 115.237113 316.400582 
L 119.381443 316.400582 
L 119.381443 40.530594 
L 115.237113 40.530594 
z
" style="fill:#ff0000;"/>
   </g>
   <g id="patch_5">
    <path clip-path="url(#pe4c5ee26e4)" d="M 135.958763 316.400582 
L 140.103093 316.400582 
L 140.103093 191.005133 
L 135.958763 191.005133 
z
" style="fill:#ff0000;"/>
   </g>
   <g id="patch_6">
    <path clip-path="url(#pe4c5ee26e4)" d="M 148.391753 316.400582 
L 152.536082 316.400582 
L 152.536082 203.544678 
L 148.391753 203.544678 
z
" style="fill:#ff0000;"/>
   </g>
   <g id="patch_7">
    <path clip-path="url(#pe4c5ee26e4)" d="M 471.027835 316.400582 
L 475.172165 316.400582 
L 475.172165 191.005133 
L 471.027835 191.005133 
z
" style="fill:#ff0000;"/>
   </g>
   <g id="line2d_1">
    <path clip-path="url(#pe4c5ee26e4)" d="M 51.804 316.400582 
L 452.196 316.400582 
" style="fill:none;stroke:#000000;stroke-linecap:square;stroke-width:2;"/>
   </g>
   <g id="line2d_2">
    <path clip-path="url(#pe4c5ee26e4)" d="M 51 316.400582 
L 50.999841 301.881109 
L 50.997456 287.361636 
L 50.987121 272.842163 
L 50.959295 258.32269 
L 50.900622 243.803217 
L 50.79393 229.283744 
L 50.61823 214.764271 
L 50.348717 200.244798 
L 49.95677 185.725325 
L 49.409953 171.205852 
L 48.672012 156.686378 
L 47.702879 142.166905 
L 46.458667 127.647432 
L 44.891676 113.127959 
L 42.950388 98.608486 
L 40.579469 84.089013 
L 37.71977 69.56954 
L 34.308324 55.050067 
L 30.278351 40.530594 
" style="fill:none;stroke:#000000;stroke-linecap:square;stroke-width:2;"/>
   </g>
   <g id="line2d_3">
    <path clip-path="url(#pe4c5ee26e4)" d="M 453 316.400582 
L 453.000159 301.881109 
L 453.002544 287.361636 
L 453.012879 272.842163 
L 453.040705 258.32269 
L 453.099378 243.803217 
L 453.20607 229.283744 
L 453.38177 214.764271 
L 453.651283 200.244798 
L 454.04323 185.725325 
L 454.590047 171.205852 
L 455.327988 156.686378 
L 456.297121 142.166905 
L 457.541333 127.647432 
L 459.108324 113.127959 
L 461.049612 98.608486 
L 463.420531 84.089013 
L 466.28023 69.56954 
L 469.691676 55.050067 
L 473.721649 40.530594 
" style="fill:none;stroke:#000000;stroke-linecap:square;stroke-width:2;"/>
   </g>
   <g id="text_1">
    <!-- E1 -->
    <defs>
     <path d="M 5.515625 0 
L 5.515625 5.171875 
L 14.796875 5.171875 
L 14.796875 67.671875 
L 5.515625 67.671875 
L 5.515625 72.90625 
L 64.203125 72.90625 
L 64.203125 56.6875 
L 58.203125 56.6875 
L 58.203125 66.890625 
L 24.703125 66.890625 
L 24.703125 42.484375 
L 48.578125 42.484375 
L 48.578125 51.609375 
L 54.59375 51.609375 
L 54.59375 27.390625 
L 48.578125 27.390625 
L 48.578125 36.53125 
L 24.703125 36.53125 
L 24.703125 6 
L 58.984375 6 
L 58.984375 16.21875 
L 64.984375 16.21875 
L 64.984375 0 
z
" id="DejaVuSerif-69"/>
     <path d="M 14.203125 0 
L 14.203125 5.171875 
L 26.90625 5.171875 
L 26.90625 65.828125 
L 12.203125 56.296875 
L 12.203125 62.703125 
L 29.984375 74.21875 
L 36.71875 74.21875 
L 36.71875 5.171875 
L 49.421875 5.171875 
L 49.421875 0 
z
" id="DejaVuSerif-49"/>
    </defs>
    <g transform="translate(108.187539 280.023618)rotate(-90)scale(0.12 -0.12)">
     <use xlink:href="#DejaVuSerif-69"/>
     <use x="72.998047" xlink:href="#DejaVuSerif-49"/>
    </g>
   </g>
   <g id="text_2">
    <!-- E2* -->
    <defs>
     <path d="M 12.796875 55.515625 
L 7.328125 55.515625 
L 7.328125 68.5 
Q 12.546875 71.296875 17.84375 72.75 
Q 23.140625 74.21875 28.21875 74.21875 
Q 39.59375 74.21875 46.1875 68.703125 
Q 52.78125 63.1875 52.78125 53.71875 
Q 52.78125 43.015625 37.84375 28.125 
Q 36.671875 27 36.078125 26.421875 
L 17.671875 8.015625 
L 48.09375 8.015625 
L 48.09375 17 
L 53.8125 17 
L 53.8125 0 
L 6.78125 0 
L 6.78125 5.328125 
L 28.90625 27.390625 
Q 36.234375 34.71875 39.359375 40.84375 
Q 42.484375 46.96875 42.484375 53.71875 
Q 42.484375 61.078125 38.640625 65.234375 
Q 34.8125 69.390625 28.078125 69.390625 
Q 21.09375 69.390625 17.28125 65.921875 
Q 13.484375 62.453125 12.796875 55.515625 
z
" id="DejaVuSerif-50"/>
     <path d="M 48.390625 60.40625 
L 29.296875 51.515625 
L 48.390625 42.484375 
L 44.671875 36.71875 
L 27.6875 47.3125 
L 28.328125 28.71875 
L 21.6875 28.71875 
L 22.3125 47.3125 
L 5.328125 36.71875 
L 1.609375 42.484375 
L 20.703125 51.421875 
L 1.609375 60.40625 
L 5.328125 66.21875 
L 22.3125 55.609375 
L 21.6875 74.21875 
L 28.328125 74.21875 
L 27.6875 55.609375 
L 44.671875 66.21875 
z
" id="DejaVuSerif-42"/>
    </defs>
    <g transform="translate(115.647332 154.628169)rotate(-90)scale(0.12 -0.12)">
     <use xlink:href="#DejaVuSerif-69"/>
     <use x="72.998047" xlink:href="#DejaVuSerif-50"/>
     <use x="136.621094" xlink:href="#DejaVuSerif-42"/>
    </g>
   </g>
   <g id="text_3">
    <!-- E2 -->
    <g transform="translate(120.620528 29.232719)rotate(-90)scale(0.12 -0.12)">
     <use xlink:href="#DejaVuSerif-69"/>
     <use x="72.998047" xlink:href="#DejaVuSerif-50"/>
    </g>
   </g>
   <g id="text_4">
    <!-- E3 -->
    <defs>
     <path d="M 9.71875 69.828125 
Q 15.4375 71.96875 20.671875 73.09375 
Q 25.921875 74.21875 30.515625 74.21875 
Q 41.21875 74.21875 47.21875 69.59375 
Q 53.21875 64.984375 53.21875 56.78125 
Q 53.21875 50.203125 49.0625 45.78125 
Q 44.921875 41.359375 37.3125 39.796875 
Q 46.296875 38.53125 51.25 33.28125 
Q 56.203125 28.03125 56.203125 19.671875 
Q 56.203125 9.46875 49.34375 4.015625 
Q 42.484375 -1.421875 29.59375 -1.421875 
Q 23.875 -1.421875 18.421875 -0.1875 
Q 12.984375 1.03125 7.625 3.515625 
L 7.625 17.671875 
L 13.09375 17.671875 
Q 13.578125 10.640625 17.828125 7.03125 
Q 22.078125 3.421875 29.78125 3.421875 
Q 37.25 3.421875 41.578125 7.734375 
Q 45.90625 12.0625 45.90625 19.578125 
Q 45.90625 28.171875 41.453125 32.59375 
Q 37.015625 37.015625 28.421875 37.015625 
L 23.78125 37.015625 
L 23.78125 42 
L 26.21875 42 
Q 34.765625 42 39.03125 45.53125 
Q 43.3125 49.078125 43.3125 56.203125 
Q 43.3125 62.59375 39.796875 65.984375 
Q 36.28125 69.390625 29.6875 69.390625 
Q 23.09375 69.390625 19.453125 66.265625 
Q 15.828125 63.140625 15.1875 56.984375 
L 9.71875 56.984375 
z
" id="DejaVuSerif-51"/>
    </defs>
    <g transform="translate(141.342178 179.707259)rotate(-90)scale(0.12 -0.12)">
     <use xlink:href="#DejaVuSerif-69"/>
     <use x="72.998047" xlink:href="#DejaVuSerif-51"/>
    </g>
   </g>
   <g id="text_5">
    <!-- E4 -->
    <defs>
     <path d="M 34.90625 24.703125 
L 34.90625 63.484375 
L 10.015625 24.703125 
z
M 56.390625 0 
L 23.1875 0 
L 23.1875 5.171875 
L 34.90625 5.171875 
L 34.90625 19.484375 
L 3.078125 19.484375 
L 3.078125 24.8125 
L 35.015625 74.21875 
L 44.671875 74.21875 
L 44.671875 24.703125 
L 58.59375 24.703125 
L 58.59375 19.484375 
L 44.671875 19.484375 
L 44.671875 5.171875 
L 56.390625 5.171875 
z
" id="DejaVuSerif-52"/>
    </defs>
    <g transform="translate(153.775168 192.246804)rotate(-90)scale(0.12 -0.12)">
     <use xlink:href="#DejaVuSerif-69"/>
     <use x="72.998047" xlink:href="#DejaVuSerif-52"/>
    </g>
   </g>
   <g id="text_6">
    <!-- E$_C$ -->
    <defs>
     <path d="M 67.1875 19.28125 
Q 61.96875 9.078125 53.34375 3.828125 
Q 44.734375 -1.421875 33.109375 -1.421875 
Q 25.984375 -1.421875 20.359375 1.015625 
Q 14.75 3.46875 10.9375 8.203125 
Q 6.546875 13.671875 5.21875 20.625 
Q 3.90625 27.59375 5.609375 36.375 
Q 8.9375 53.375 20.78125 63.796875 
Q 32.625 74.21875 48.6875 74.21875 
Q 54.640625 74.21875 61.0625 72.65625 
Q 67.484375 71.09375 74.609375 67.921875 
L 71.390625 51.125 
L 65.875 51.125 
Q 65.828125 60.296875 61.234375 64.640625 
Q 56.640625 69 46.828125 69 
Q 35.15625 69 27.53125 60.71875 
Q 19.921875 52.4375 16.796875 36.375 
Q 13.671875 20.359375 18.0625 12.078125 
Q 22.46875 3.8125 34.125 3.8125 
Q 42.28125 3.8125 48.3125 7.6875 
Q 54.34375 11.578125 58.203125 19.28125 
z
" id="DejaVuSerif-Italic-67"/>
    </defs>
    <g transform="translate(34.693351 37.217094)rotate(-90)scale(0.16 -0.16)">
     <use transform="translate(0 0.09375)" xlink:href="#DejaVuSerif-69"/>
     <use transform="translate(73.906406 -15.478125)scale(0.7)" xlink:href="#DejaVuSerif-Italic-67"/>
    </g>
   </g>
   <g id="text_7">
    <!-- E$_V$ -->
    <defs>
     <path d="M 23.53125 67.671875 
L 34.234375 11.71875 
L 66.546875 67.671875 
L 58.34375 67.671875 
L 59.375 72.90625 
L 80.765625 72.90625 
L 79.734375 67.671875 
L 72.65625 67.671875 
L 33.5 0 
L 25.09375 0 
L 12.359375 67.671875 
L 5.078125 67.671875 
L 6.109375 72.90625 
L 32.671875 72.90625 
L 31.640625 67.671875 
z
" id="DejaVuSerif-Italic-86"/>
    </defs>
    <g transform="translate(478.136649 36.977094)rotate(-90)scale(0.16 -0.16)">
     <use transform="translate(0 0.09375)" xlink:href="#DejaVuSerif-69"/>
     <use transform="translate(73.906406 -15.478125)scale(0.7)" xlink:href="#DejaVuSerif-Italic-86"/>
    </g>
   </g>
   <g id="patch_8">
    <path d="M 449.879204 330.194082 
Q 251.998063 330.194082 54.116922 330.194082 
" style="fill:none;stroke:#000000;stroke-linecap:round;"/>
    <path d="M 442.679204 326.594082 
L 449.879204 330.194082 
L 442.679204 333.794082 
L 442.679204 326.594082 
z
" style="fill:#1f77b4;stroke:#000000;stroke-linecap:round;"/>
    <path d="M 61.316922 333.794082 
L 54.116922 330.194082 
L 61.316922 326.594082 
L 61.316922 333.794082 
z
" style="fill:#1f77b4;stroke:#000000;stroke-linecap:round;"/>
   </g>
   <g id="text_8">
    <!-- E$_G$ = 4.85 eV -->
    <defs>
     <path d="M 66.890625 51.125 
Q 66.9375 60.25 62.375 64.625 
Q 57.8125 69 48.140625 69 
Q 35.546875 69 27.75 60.890625 
Q 19.96875 52.78125 16.796875 36.375 
Q 13.671875 20.3125 18.453125 12.0625 
Q 23.25 3.8125 35.640625 3.8125 
Q 41.15625 3.8125 46.453125 5.171875 
Q 51.765625 6.546875 56.84375 9.28125 
L 60.5 28.078125 
L 46.78125 28.078125 
L 47.796875 33.296875 
L 71.4375 33.296875 
L 66.109375 6.109375 
Q 58.890625 2.34375 51.03125 0.453125 
Q 43.171875 -1.421875 34.625 -1.421875 
Q 18.109375 -1.421875 10.203125 8.90625 
Q 2.296875 19.234375 5.609375 36.375 
Q 8.984375 53.65625 20.9375 63.9375 
Q 32.90625 74.21875 49.75 74.21875 
Q 56 74.21875 62.375 72.78125 
Q 68.75 71.34375 75.6875 68.40625 
L 72.359375 51.125 
z
" id="DejaVuSerif-Italic-71"/>
     <path id="DejaVuSerif-32"/>
     <path d="M 10.59375 45.21875 
L 73.1875 45.21875 
L 73.1875 37.40625 
L 10.59375 37.40625 
z
M 10.59375 25.296875 
L 73.1875 25.296875 
L 73.1875 17.484375 
L 10.59375 17.484375 
z
" id="DejaVuSerif-61"/>
     <path d="M 9.421875 5.078125 
Q 9.421875 7.8125 11.28125 9.71875 
Q 13.140625 11.625 15.921875 11.625 
Q 18.609375 11.625 20.5 9.71875 
Q 22.40625 7.8125 22.40625 5.078125 
Q 22.40625 2.390625 20.5 0.484375 
Q 18.609375 -1.421875 15.921875 -1.421875 
Q 13.140625 -1.421875 11.28125 0.453125 
Q 9.421875 2.34375 9.421875 5.078125 
z
" id="DejaVuSerif-46"/>
     <path d="M 46.578125 19.921875 
Q 46.578125 27.734375 42.6875 32.046875 
Q 38.8125 36.375 31.78125 36.375 
Q 24.75 36.375 20.875 32.046875 
Q 17 27.734375 17 19.921875 
Q 17 12.0625 20.875 7.734375 
Q 24.75 3.421875 31.78125 3.421875 
Q 38.8125 3.421875 42.6875 7.734375 
Q 46.578125 12.0625 46.578125 19.921875 
z
M 44.578125 55.328125 
Q 44.578125 61.96875 41.203125 65.671875 
Q 37.84375 69.390625 31.78125 69.390625 
Q 25.78125 69.390625 22.390625 65.671875 
Q 19 61.96875 19 55.328125 
Q 19 48.640625 22.390625 44.921875 
Q 25.78125 41.21875 31.78125 41.21875 
Q 37.84375 41.21875 41.203125 44.921875 
Q 44.578125 48.640625 44.578125 55.328125 
z
M 39.3125 38.8125 
Q 47.609375 37.703125 52.25 32.6875 
Q 56.890625 27.6875 56.890625 19.921875 
Q 56.890625 9.671875 50.390625 4.125 
Q 43.890625 -1.421875 31.78125 -1.421875 
Q 19.734375 -1.421875 13.203125 4.125 
Q 6.6875 9.671875 6.6875 19.921875 
Q 6.6875 27.6875 11.328125 32.6875 
Q 15.96875 37.703125 24.3125 38.8125 
Q 16.9375 40.140625 13 44.40625 
Q 9.078125 48.6875 9.078125 55.328125 
Q 9.078125 64.109375 15.125 69.15625 
Q 21.1875 74.21875 31.78125 74.21875 
Q 42.390625 74.21875 48.4375 69.15625 
Q 54.5 64.109375 54.5 55.328125 
Q 54.5 48.6875 50.5625 44.40625 
Q 46.625 40.140625 39.3125 38.8125 
z
" id="DejaVuSerif-56"/>
     <path d="M 50.296875 72.90625 
L 50.296875 64.890625 
L 16.890625 64.890625 
L 16.890625 44 
Q 19.4375 45.75 22.828125 46.625 
Q 26.21875 47.515625 30.421875 47.515625 
Q 42.234375 47.515625 49.0625 40.96875 
Q 55.90625 34.421875 55.90625 23.09375 
Q 55.90625 11.53125 49 5.046875 
Q 42.09375 -1.421875 29.59375 -1.421875 
Q 24.5625 -1.421875 19.28125 -0.1875 
Q 14.015625 1.03125 8.5 3.515625 
L 8.5 17.671875 
L 14.015625 17.671875 
Q 14.453125 10.75 18.421875 7.078125 
Q 22.40625 3.421875 29.59375 3.421875 
Q 37.3125 3.421875 41.453125 8.5 
Q 45.609375 13.578125 45.609375 23.09375 
Q 45.609375 32.5625 41.484375 37.609375 
Q 37.359375 42.671875 29.59375 42.671875 
Q 25.203125 42.671875 21.84375 41.109375 
Q 18.5 39.546875 15.921875 36.28125 
L 11.71875 36.28125 
L 11.71875 72.90625 
z
" id="DejaVuSerif-53"/>
     <path d="M 54.203125 25 
L 15.484375 25 
L 15.484375 24.609375 
Q 15.484375 14.109375 19.4375 8.765625 
Q 23.390625 3.421875 31.109375 3.421875 
Q 37.015625 3.421875 40.796875 6.515625 
Q 44.578125 9.625 46.09375 15.71875 
L 53.328125 15.71875 
Q 51.171875 7.171875 45.375 2.875 
Q 39.59375 -1.421875 30.171875 -1.421875 
Q 18.796875 -1.421875 11.890625 6.078125 
Q 4.984375 13.578125 4.984375 25.984375 
Q 4.984375 38.28125 11.765625 45.796875 
Q 18.5625 53.328125 29.59375 53.328125 
Q 41.359375 53.328125 47.65625 46.0625 
Q 53.953125 38.8125 54.203125 25 
z
M 43.609375 30.171875 
Q 43.3125 39.265625 39.765625 43.875 
Q 36.234375 48.484375 29.59375 48.484375 
Q 23.390625 48.484375 19.828125 43.84375 
Q 16.265625 39.203125 15.484375 30.171875 
z
" id="DejaVuSerif-101"/>
     <path d="M 17.484375 67.671875 
L 39.015625 11.71875 
L 60.5 67.671875 
L 52.296875 67.671875 
L 52.296875 72.90625 
L 73.6875 72.90625 
L 73.6875 67.671875 
L 66.609375 67.671875 
L 40.578125 0 
L 32.171875 0 
L 6.296875 67.671875 
L -0.984375 67.671875 
L -0.984375 72.90625 
L 25.59375 72.90625 
L 25.59375 67.671875 
z
" id="DejaVuSerif-86"/>
    </defs>
    <g transform="translate(305.28 335.157581)rotate(-180)scale(0.16 -0.16)">
     <use transform="translate(0 0.78125)" xlink:href="#DejaVuSerif-69"/>
     <use transform="translate(73.906406 -14.790625)scale(0.7)" xlink:href="#DejaVuSerif-Italic-71"/>
     <use transform="translate(132.419688 0.78125)" xlink:href="#DejaVuSerif-32"/>
     <use transform="translate(164.206797 0.78125)" xlink:href="#DejaVuSerif-61"/>
     <use transform="translate(247.995859 0.78125)" xlink:href="#DejaVuSerif-32"/>
     <use transform="translate(279.782969 0.78125)" xlink:href="#DejaVuSerif-52"/>
     <use transform="translate(343.406016 0.78125)" xlink:href="#DejaVuSerif-46"/>
     <use transform="translate(375.14625 0.78125)" xlink:href="#DejaVuSerif-56"/>
     <use transform="translate(438.769297 0.78125)" xlink:href="#DejaVuSerif-53"/>
     <use transform="translate(502.392344 0.78125)" xlink:href="#DejaVuSerif-32"/>
     <use transform="translate(534.179453 0.78125)" xlink:href="#DejaVuSerif-101"/>
     <use transform="translate(593.359141 0.78125)" xlink:href="#DejaVuSerif-86"/>
    </g>
   </g>
   <g id="text_9">
    <!-- ~ 10$^{14}$ ${cm}^{-3}$ -->
    <defs>
     <path d="M 73.1875 39.40625 
L 73.1875 32.171875 
Q 68.3125 27.875 63.90625 25.828125 
Q 59.515625 23.78125 54.984375 23.78125 
Q 50.296875 23.78125 41.796875 27 
L 41.3125 27.203125 
Q 40.765625 27.390625 39.703125 27.828125 
Q 32.515625 30.609375 27.875 30.609375 
Q 23.390625 30.609375 19.15625 28.828125 
Q 14.9375 27.046875 10.59375 23.296875 
L 10.59375 30.71875 
Q 15.484375 34.96875 19.84375 36.9375 
Q 24.21875 38.921875 28.8125 38.921875 
Q 33.5 38.921875 42 35.6875 
L 42.484375 35.5 
Q 43.015625 35.296875 44 34.90625 
Q 51.078125 32.078125 55.8125 32.078125 
Q 60.296875 32.078125 64.59375 33.875 
Q 68.890625 35.6875 73.1875 39.40625 
z
" id="DejaVuSerif-126"/>
     <path d="M 31.78125 3.421875 
Q 39.265625 3.421875 42.96875 11.625 
Q 46.6875 19.828125 46.6875 36.375 
Q 46.6875 52.984375 42.96875 61.1875 
Q 39.265625 69.390625 31.78125 69.390625 
Q 24.3125 69.390625 20.59375 61.1875 
Q 16.890625 52.984375 16.890625 36.375 
Q 16.890625 19.828125 20.59375 11.625 
Q 24.3125 3.421875 31.78125 3.421875 
z
M 31.78125 -1.421875 
Q 19.921875 -1.421875 13.25 8.53125 
Q 6.59375 18.5 6.59375 36.375 
Q 6.59375 54.296875 13.25 64.25 
Q 19.921875 74.21875 31.78125 74.21875 
Q 43.703125 74.21875 50.34375 64.25 
Q 56.984375 54.296875 56.984375 36.375 
Q 56.984375 18.5 50.34375 8.53125 
Q 43.703125 -1.421875 31.78125 -1.421875 
z
" id="DejaVuSerif-48"/>
     <path d="M 49.421875 15.578125 
Q 45.90625 7.28125 39.625 2.921875 
Q 33.34375 -1.421875 24.75 -1.421875 
Q 13.421875 -1.421875 8.015625 6.0625 
Q 4.25 11.28125 4.25 18.796875 
Q 4.25 22.171875 4.984375 25.984375 
Q 7.421875 38.421875 15.75 45.875 
Q 24.078125 53.328125 35.40625 53.328125 
Q 40.328125 53.328125 44.984375 52.171875 
Q 49.65625 51.03125 54.109375 48.6875 
L 51.5625 35.40625 
L 46.34375 35.40625 
Q 46.34375 36.078125 46.34375 36.671875 
Q 46.34375 42.53125 43.796875 45.359375 
Q 40.96875 48.484375 34.578125 48.484375 
Q 27.296875 48.484375 22.484375 42.84375 
Q 17.671875 37.203125 15.484375 25.984375 
Q 14.5 20.84375 14.5 16.84375 
Q 14.5 12.15625 15.875 9.078125 
Q 18.453125 3.421875 25.78125 3.421875 
Q 31.59375 3.421875 35.640625 6.4375 
Q 39.703125 9.46875 42.1875 15.578125 
z
" id="DejaVuSerif-Italic-99"/>
     <path d="M 54.734375 41.796875 
Q 58.453125 47.515625 63.03125 50.421875 
Q 67.625 53.328125 73 53.328125 
Q 81.15625 53.328125 84.1875 48.25 
Q 85.984375 45.21875 85.984375 40.28125 
Q 85.984375 37.0625 85.203125 33.015625 
L 79.78125 5.171875 
L 87.890625 5.171875 
L 86.921875 0 
L 69.828125 0 
L 76.03125 31.984375 
Q 76.765625 35.796875 76.765625 38.53125 
Q 76.765625 41.546875 75.875 43.3125 
Q 74.21875 46.6875 68.796875 46.6875 
Q 62.796875 46.6875 58.765625 42.140625 
Q 54.734375 37.59375 53.03125 28.90625 
L 47.40625 0 
L 38.421875 0 
L 44.734375 32.328125 
Q 45.40625 35.984375 45.40625 38.625 
Q 45.40625 41.65625 44.53125 43.359375 
Q 42.828125 46.6875 37.40625 46.6875 
Q 31.390625 46.6875 27.359375 42.140625 
Q 23.34375 37.59375 21.625 28.90625 
L 16.015625 0 
L 7.03125 0 
L 16.109375 46.78125 
L 7.515625 46.78125 
L 8.5 51.90625 
L 26.078125 51.90625 
L 24.3125 42.671875 
Q 27.78125 47.859375 32.171875 50.59375 
Q 36.578125 53.328125 41.453125 53.328125 
Q 47.515625 53.328125 50.96875 50.3125 
Q 54.4375 47.3125 54.734375 41.796875 
z
" id="DejaVuSerif-Italic-109"/>
     <path d="M 10.59375 35.296875 
L 73.1875 35.296875 
L 73.1875 27.390625 
L 10.59375 27.390625 
z
" id="DejaVuSerif-8722"/>
    </defs>
    <g transform="translate(476.41125 179.707259)rotate(-90)scale(0.12 -0.12)">
     <use transform="translate(0 0.7125)" xlink:href="#DejaVuSerif-126"/>
     <use transform="translate(83.789062 0.7125)" xlink:href="#DejaVuSerif-32"/>
     <use transform="translate(115.576172 0.7125)" xlink:href="#DejaVuSerif-49"/>
     <use transform="translate(179.199219 0.7125)" xlink:href="#DejaVuSerif-48"/>
     <use transform="translate(243.730625 37.046875)scale(0.7)" xlink:href="#DejaVuSerif-49"/>
     <use transform="translate(288.266758 37.046875)scale(0.7)" xlink:href="#DejaVuSerif-52"/>
     <use transform="translate(335.398203 0.7125)" xlink:href="#DejaVuSerif-32"/>
     <use transform="translate(367.185313 0.7125)" xlink:href="#DejaVuSerif-Italic-99"/>
     <use transform="translate(423.191172 0.7125)" xlink:href="#DejaVuSerif-Italic-109"/>
     <use transform="translate(522.453464 37.046875)scale(0.7)" xlink:href="#DejaVuSerif-8722"/>
     <use transform="translate(581.105807 37.046875)scale(0.7)" xlink:href="#DejaVuSerif-51"/>
    </g>
   </g>
  </g>
 </g>
 <defs>
  <clipPath id="pe4c5ee26e4">
   <rect height="333.802686" width="482.4" x="10.8" y="12.943595"/>
  </clipPath>
 </defs>
</svg>
